<svg width="24" height="21" viewBox="0 0 24 21" fill="none" xmlns="http://www.w3.org/2000/svg">
<g clip-path="url(#clip0_128_254)">
<path d="M9.58336 10.0509C10.8421 9.44529 11.4992 8.52888 11.4992 7.10248C11.4992 4.28951 9.41711 3.60419 7.0144 3.60419H0.400024L0.400024 17.7248H7.20044C9.74961 17.7248 12.1444 16.4936 12.1444 13.6249C12.1444 11.8519 11.3092 10.541 9.58336 10.0509ZM3.48357 6.01474H6.37711C7.4894 6.01474 8.49086 6.32951 8.49086 7.62841C8.49086 8.82771 7.71107 9.30982 6.61065 9.30982H3.48357V6.01474ZM6.78086 15.3262H3.48357L3.48357 11.4375H6.84419C8.2019 11.4375 9.06086 12.0072 9.06086 13.4536C9.06086 14.88 8.03565 15.3262 6.78086 15.3262ZM20.9715 5.73583H15.2834V4.34529L20.9715 4.34529V5.73583ZM23.2 12.7603C23.2 9.73615 21.4425 7.21404 18.2561 7.21404C15.1606 7.21404 13.0588 9.55685 13.0588 12.6248C13.0588 15.8083 15.0498 17.9918 18.2561 17.9918C20.6825 17.9918 22.254 16.8921 23.01 14.5533H20.5479C20.2827 15.4258 19.1902 15.888 18.3431 15.888C16.7084 15.888 15.8494 14.9238 15.8494 13.2862H23.1763C23.1882 13.1189 23.2 12.9396 23.2 12.7603ZM15.8534 11.5172C15.9444 10.1744 16.8311 9.33373 18.169 9.33373C19.5702 9.33373 20.2748 10.1625 20.3936 11.5172H15.8534Z" fill="#0057FF"/>
</g>
<defs>
<clipPath id="clip0_128_254">
<rect width="22.8" height="20.4" fill="white" transform="translate(0.400024 0.599976)"/>
</clipPath>
</defs>
</svg>
