<svg width="141" height="18" viewBox="0 0 141 18" fill="none" xmlns="http://www.w3.org/2000/svg">
<path d="M6.51953 10.1357H2.50195L2.48047 7.92285H5.85352C6.44792 7.92285 6.9349 7.84766 7.31445 7.69727C7.69401 7.53971 7.97689 7.31413 8.16309 7.02051C8.35645 6.71973 8.45312 6.35449 8.45312 5.9248C8.45312 5.43783 8.36003 5.04395 8.17383 4.74316C7.99479 4.44238 7.71191 4.22396 7.3252 4.08789C6.94564 3.95182 6.45508 3.88379 5.85352 3.88379H3.61914V17H0.396484V1.35938H5.85352C6.76302 1.35938 7.57585 1.44531 8.29199 1.61719C9.0153 1.78906 9.6276 2.05046 10.1289 2.40137C10.6302 2.75228 11.0133 3.19629 11.2783 3.7334C11.5433 4.26335 11.6758 4.89355 11.6758 5.62402C11.6758 6.26855 11.529 6.86296 11.2354 7.40723C10.9489 7.9515 10.4941 8.39551 9.87109 8.73926C9.25521 9.08301 8.44954 9.27279 7.4541 9.30859L6.51953 10.1357ZM6.37988 17H1.62109L2.87793 14.4863H6.37988C6.94564 14.4863 7.40755 14.3968 7.76562 14.2178C8.1237 14.0316 8.38867 13.7809 8.56055 13.4658C8.73242 13.1507 8.81836 12.7891 8.81836 12.3809C8.81836 11.9225 8.73958 11.5251 8.58203 11.1885C8.43164 10.8519 8.18815 10.5941 7.85156 10.415C7.51497 10.2288 7.07096 10.1357 6.51953 10.1357H3.41504L3.43652 7.92285H7.30371L8.04492 8.79297C8.9974 8.77865 9.76367 8.94694 10.3438 9.29785C10.931 9.6416 11.3571 10.0892 11.6221 10.6406C11.8942 11.1921 12.0303 11.7829 12.0303 12.4131C12.0303 13.4157 11.8118 14.2607 11.375 14.9482C10.9382 15.6286 10.2972 16.1406 9.45215 16.4844C8.61426 16.8281 7.59017 17 6.37988 17ZM19.6035 17.2148C18.7012 17.2148 17.8919 17.0716 17.1758 16.7852C16.4596 16.4915 15.8509 16.0869 15.3496 15.5713C14.8555 15.0557 14.4759 14.4577 14.2109 13.7773C13.946 13.0898 13.8135 12.3594 13.8135 11.5859V11.1562C13.8135 10.2754 13.9388 9.46973 14.1895 8.73926C14.4401 8.00879 14.7982 7.375 15.2637 6.83789C15.7363 6.30078 16.3092 5.889 16.9824 5.60254C17.6556 5.30892 18.4147 5.16211 19.2598 5.16211C20.0833 5.16211 20.8138 5.29818 21.4512 5.57031C22.0885 5.84245 22.6221 6.22917 23.0518 6.73047C23.4886 7.23177 23.818 7.83333 24.04 8.53516C24.262 9.22982 24.373 10.0033 24.373 10.8555V12.1445H15.1348V10.082H21.333V9.8457C21.333 9.41602 21.2542 9.03288 21.0967 8.69629C20.9463 8.35254 20.7171 8.0804 20.4092 7.87988C20.1012 7.67936 19.7074 7.5791 19.2275 7.5791C18.8193 7.5791 18.4684 7.66862 18.1748 7.84766C17.8812 8.02669 17.6413 8.27734 17.4551 8.59961C17.276 8.92188 17.14 9.30143 17.0469 9.73828C16.9609 10.168 16.918 10.6406 16.918 11.1562V11.5859C16.918 12.0514 16.9824 12.4811 17.1113 12.875C17.2474 13.2689 17.4372 13.609 17.6807 13.8955C17.9313 14.182 18.2321 14.404 18.583 14.5615C18.9411 14.7191 19.3457 14.7979 19.7969 14.7979C20.3555 14.7979 20.8747 14.6904 21.3545 14.4756C21.8415 14.2536 22.2604 13.9206 22.6113 13.4766L24.1152 15.1094C23.8717 15.4603 23.5387 15.7969 23.1162 16.1191C22.7008 16.4414 22.1995 16.7064 21.6123 16.9141C21.0251 17.1146 20.3555 17.2148 19.6035 17.2148ZM32.4082 14.3789V9.20117C32.4082 8.82878 32.3473 8.51009 32.2256 8.24512C32.1038 7.97298 31.9141 7.76172 31.6562 7.61133C31.4056 7.46094 31.0798 7.38574 30.6787 7.38574C30.335 7.38574 30.0378 7.44661 29.7871 7.56836C29.5365 7.68294 29.3431 7.85124 29.207 8.07324C29.071 8.28809 29.0029 8.54232 29.0029 8.83594H25.9092C25.9092 8.3418 26.0238 7.87272 26.2529 7.42871C26.4821 6.9847 26.8151 6.5944 27.252 6.25781C27.6888 5.91406 28.208 5.64551 28.8096 5.45215C29.4183 5.25879 30.0986 5.16211 30.8506 5.16211C31.7529 5.16211 32.555 5.3125 33.2568 5.61328C33.9587 5.91406 34.5101 6.36523 34.9111 6.9668C35.3193 7.56836 35.5234 8.32031 35.5234 9.22266V14.1963C35.5234 14.8337 35.5628 15.3564 35.6416 15.7646C35.7204 16.1657 35.835 16.5166 35.9854 16.8174V17H32.8594C32.709 16.6849 32.5944 16.291 32.5156 15.8184C32.444 15.3385 32.4082 14.8587 32.4082 14.3789ZM32.8164 9.9209L32.8379 11.6719H31.1084C30.7002 11.6719 30.3457 11.7184 30.0449 11.8115C29.7441 11.9046 29.4971 12.0371 29.3037 12.209C29.1104 12.3737 28.9671 12.5671 28.874 12.7891C28.7881 13.0111 28.7451 13.2546 28.7451 13.5195C28.7451 13.7845 28.806 14.0244 28.9277 14.2393C29.0495 14.4469 29.2249 14.6117 29.4541 14.7334C29.6833 14.848 29.9518 14.9053 30.2598 14.9053C30.7253 14.9053 31.1299 14.8122 31.4736 14.626C31.8174 14.4398 32.0824 14.2106 32.2686 13.9385C32.4619 13.6663 32.5622 13.4085 32.5693 13.165L33.3857 14.4756C33.2712 14.7692 33.1136 15.0736 32.9131 15.3887C32.7197 15.7038 32.4727 16.001 32.1719 16.2803C31.8711 16.5524 31.5094 16.778 31.0869 16.957C30.6644 17.1289 30.1631 17.2148 29.583 17.2148C28.8454 17.2148 28.1758 17.068 27.5742 16.7744C26.9798 16.4736 26.5072 16.0618 26.1562 15.5391C25.8125 15.0091 25.6406 14.4076 25.6406 13.7344C25.6406 13.1257 25.7552 12.585 25.9844 12.1123C26.2135 11.6396 26.5501 11.2422 26.9941 10.9199C27.4453 10.5905 28.0075 10.3434 28.6807 10.1787C29.3538 10.0068 30.1344 9.9209 31.0225 9.9209H32.8164ZM40.9375 7.8584V17H37.8438V5.37695H40.7441L40.9375 7.8584ZM40.4863 10.7803H39.6484C39.6484 9.9209 39.7594 9.14746 39.9814 8.45996C40.2035 7.7653 40.515 7.17448 40.916 6.6875C41.3171 6.19336 41.7933 5.81738 42.3447 5.55957C42.9033 5.2946 43.5264 5.16211 44.2139 5.16211C44.7581 5.16211 45.2559 5.24089 45.707 5.39844C46.1582 5.55599 46.5449 5.80664 46.8672 6.15039C47.1966 6.49414 47.4473 6.94889 47.6191 7.51465C47.7982 8.0804 47.8877 8.77148 47.8877 9.58789V17H44.7725V9.57715C44.7725 9.06152 44.7008 8.66048 44.5576 8.37402C44.4144 8.08757 44.2031 7.88704 43.9238 7.77246C43.6517 7.65072 43.3151 7.58984 42.9141 7.58984C42.4987 7.58984 42.137 7.6722 41.8291 7.83691C41.5283 8.00163 41.2777 8.23079 41.0771 8.52441C40.8838 8.81087 40.737 9.14746 40.6367 9.53418C40.5365 9.9209 40.4863 10.3363 40.4863 10.7803ZM56.5244 13.7881C56.5244 13.5661 56.46 13.3656 56.3311 13.1865C56.2021 13.0075 55.9622 12.8428 55.6113 12.6924C55.2676 12.5348 54.7699 12.3916 54.1182 12.2627C53.5309 12.1338 52.9831 11.9727 52.4746 11.7793C51.9733 11.5788 51.5365 11.3389 51.1641 11.0596C50.7988 10.7803 50.5124 10.4508 50.3047 10.0713C50.097 9.68457 49.9932 9.24414 49.9932 8.75C49.9932 8.26302 50.097 7.80469 50.3047 7.375C50.5195 6.94531 50.8239 6.56576 51.2178 6.23633C51.6188 5.89974 52.1058 5.63835 52.6787 5.45215C53.2588 5.25879 53.9105 5.16211 54.6338 5.16211C55.6436 5.16211 56.5101 5.32324 57.2334 5.64551C57.9639 5.96777 58.5225 6.41178 58.9092 6.97754C59.3031 7.53613 59.5 8.1735 59.5 8.88965H56.4062C56.4062 8.58887 56.3418 8.32031 56.2129 8.08398C56.0911 7.84049 55.8978 7.65072 55.6328 7.51465C55.375 7.37142 55.0384 7.2998 54.623 7.2998C54.2793 7.2998 53.9821 7.36068 53.7314 7.48242C53.4808 7.59701 53.2874 7.75456 53.1514 7.95508C53.0225 8.14844 52.958 8.36328 52.958 8.59961C52.958 8.77865 52.9938 8.93978 53.0654 9.08301C53.1442 9.21908 53.2695 9.3444 53.4414 9.45898C53.6133 9.57357 53.8353 9.68099 54.1074 9.78125C54.3867 9.87435 54.7305 9.96029 55.1387 10.0391C55.9766 10.2109 56.7249 10.4365 57.3838 10.7158C58.0426 10.988 58.5654 11.3604 58.9521 11.833C59.3389 12.2985 59.5322 12.9108 59.5322 13.6699C59.5322 14.1855 59.4176 14.6582 59.1885 15.0879C58.9593 15.5176 58.6299 15.8936 58.2002 16.2158C57.7705 16.5309 57.2549 16.778 56.6533 16.957C56.0589 17.1289 55.3893 17.2148 54.6445 17.2148C53.5632 17.2148 52.6465 17.0215 51.8945 16.6348C51.1497 16.248 50.584 15.7575 50.1973 15.1631C49.8177 14.5615 49.6279 13.9456 49.6279 13.3154H52.5605C52.5749 13.738 52.6823 14.0781 52.8828 14.3359C53.0905 14.5938 53.3519 14.7799 53.667 14.8945C53.9893 15.0091 54.3366 15.0664 54.709 15.0664C55.11 15.0664 55.443 15.0127 55.708 14.9053C55.973 14.7907 56.1735 14.6403 56.3096 14.4541C56.4528 14.2607 56.5244 14.0387 56.5244 13.7881Z" fill="white"/>
<path d="M75.3555 12.9072C75.3555 12.6279 75.3125 12.3773 75.2266 12.1553C75.1478 11.9261 74.9974 11.7184 74.7754 11.5322C74.5534 11.3389 74.2419 11.1491 73.8408 10.9629C73.4398 10.7767 72.9206 10.5833 72.2832 10.3828C71.5742 10.1536 70.901 9.89583 70.2637 9.60938C69.6335 9.32292 69.0749 8.98991 68.5879 8.61035C68.1081 8.22363 67.7285 7.77604 67.4492 7.26758C67.1771 6.75911 67.041 6.16829 67.041 5.49512C67.041 4.84342 67.1842 4.2526 67.4707 3.72266C67.7572 3.18555 68.1582 2.72721 68.6738 2.34766C69.1895 1.96094 69.7982 1.66374 70.5 1.45605C71.209 1.24837 71.986 1.14453 72.8311 1.14453C73.984 1.14453 74.9902 1.35221 75.8496 1.76758C76.709 2.18294 77.375 2.75228 77.8477 3.47559C78.3275 4.19889 78.5674 5.02604 78.5674 5.95703H75.3662C75.3662 5.4987 75.2695 5.09766 75.0762 4.75391C74.89 4.40299 74.6035 4.12728 74.2168 3.92676C73.8372 3.72624 73.3574 3.62598 72.7773 3.62598C72.2188 3.62598 71.7533 3.71191 71.3809 3.88379C71.0085 4.0485 70.7292 4.27409 70.543 4.56055C70.3568 4.83984 70.2637 5.15495 70.2637 5.50586C70.2637 5.77083 70.3281 6.01074 70.457 6.22559C70.5931 6.44043 70.7936 6.64095 71.0586 6.82715C71.3236 7.01335 71.6494 7.1888 72.0361 7.35352C72.4229 7.51823 72.8704 7.67936 73.3789 7.83691C74.2311 8.09473 74.9795 8.38477 75.624 8.70703C76.2757 9.0293 76.82 9.39095 77.2568 9.79199C77.6937 10.193 78.0231 10.6478 78.2451 11.1562C78.4671 11.6647 78.5781 12.2412 78.5781 12.8857C78.5781 13.5661 78.4456 14.1748 78.1807 14.7119C77.9157 15.249 77.5326 15.7038 77.0312 16.0762C76.5299 16.4486 75.932 16.7314 75.2373 16.9248C74.5426 17.1182 73.7656 17.2148 72.9062 17.2148C72.1328 17.2148 71.3701 17.1146 70.6182 16.9141C69.8662 16.7064 69.1823 16.3949 68.5664 15.9795C67.9577 15.5641 67.4707 15.0342 67.1055 14.3896C66.7402 13.7451 66.5576 12.9824 66.5576 12.1016H69.791C69.791 12.5885 69.8662 13.0003 70.0166 13.3369C70.167 13.6735 70.3783 13.9456 70.6504 14.1533C70.9297 14.361 71.2591 14.5114 71.6387 14.6045C72.0254 14.6976 72.4479 14.7441 72.9062 14.7441C73.4648 14.7441 73.9232 14.6654 74.2812 14.5078C74.6465 14.3503 74.915 14.1318 75.0869 13.8525C75.266 13.5732 75.3555 13.2581 75.3555 12.9072ZM86.2695 5.37695V7.56836H79.502V5.37695H86.2695ZM81.1777 2.50879H84.2715V13.498C84.2715 13.8346 84.3145 14.0924 84.4004 14.2715C84.4935 14.4505 84.6296 14.5758 84.8086 14.6475C84.9876 14.7119 85.2132 14.7441 85.4854 14.7441C85.6787 14.7441 85.8506 14.737 86.001 14.7227C86.1585 14.7012 86.291 14.6797 86.3984 14.6582L86.4092 16.9355C86.1442 17.0215 85.8577 17.0895 85.5498 17.1396C85.2419 17.1898 84.9017 17.2148 84.5293 17.2148C83.849 17.2148 83.2546 17.1038 82.7461 16.8818C82.2448 16.6527 81.8581 16.2874 81.5859 15.7861C81.3138 15.2848 81.1777 14.626 81.1777 13.8096V2.50879ZM94.9062 14.2178V5.37695H98V17H95.0889L94.9062 14.2178ZM95.25 11.833L96.1631 11.8115C96.1631 12.585 96.0736 13.3047 95.8945 13.9707C95.7155 14.6296 95.4469 15.2025 95.0889 15.6895C94.7308 16.1693 94.2796 16.5452 93.7354 16.8174C93.1911 17.0824 92.5501 17.2148 91.8125 17.2148C91.2467 17.2148 90.724 17.1361 90.2441 16.9785C89.7715 16.8138 89.3633 16.5596 89.0195 16.2158C88.6829 15.8649 88.418 15.4173 88.2246 14.873C88.0384 14.3216 87.9453 13.6592 87.9453 12.8857V5.37695H91.0391V12.9072C91.0391 13.251 91.0785 13.541 91.1572 13.7773C91.2432 14.0137 91.3613 14.207 91.5117 14.3574C91.6621 14.5078 91.8376 14.6152 92.0381 14.6797C92.2458 14.7441 92.4749 14.7764 92.7256 14.7764C93.363 14.7764 93.8643 14.6475 94.2295 14.3896C94.6019 14.1318 94.8633 13.7809 95.0137 13.3369C95.1712 12.8857 95.25 12.3844 95.25 11.833ZM107.228 14.4648V0.5H110.343V17H107.539L107.228 14.4648ZM99.8799 11.3281V11.1025C99.8799 10.2145 99.9801 9.40885 100.181 8.68555C100.381 7.95508 100.675 7.32845 101.062 6.80566C101.448 6.28288 101.924 5.87826 102.49 5.5918C103.056 5.30534 103.701 5.16211 104.424 5.16211C105.104 5.16211 105.699 5.30534 106.207 5.5918C106.723 5.87826 107.16 6.28646 107.518 6.81641C107.883 7.33919 108.176 7.95866 108.398 8.6748C108.62 9.38379 108.782 10.1608 108.882 11.0059V11.5C108.782 12.3092 108.62 13.0612 108.398 13.7559C108.176 14.4505 107.883 15.0592 107.518 15.582C107.16 16.0977 106.723 16.4987 106.207 16.7852C105.691 17.0716 105.09 17.2148 104.402 17.2148C103.679 17.2148 103.035 17.068 102.469 16.7744C101.91 16.4808 101.438 16.069 101.051 15.5391C100.671 15.0091 100.381 14.3861 100.181 13.6699C99.9801 12.9538 99.8799 12.1732 99.8799 11.3281ZM102.974 11.1025V11.3281C102.974 11.8079 103.009 12.2555 103.081 12.6709C103.16 13.0863 103.285 13.4551 103.457 13.7773C103.636 14.0924 103.865 14.3395 104.145 14.5186C104.431 14.6904 104.778 14.7764 105.187 14.7764C105.716 14.7764 106.153 14.6582 106.497 14.4219C106.841 14.1784 107.102 13.8454 107.281 13.4229C107.467 13.0003 107.575 12.5133 107.604 11.9619V10.5547C107.582 10.1035 107.518 9.69889 107.41 9.34082C107.31 8.97559 107.16 8.66406 106.959 8.40625C106.766 8.14844 106.522 7.94792 106.229 7.80469C105.942 7.66146 105.602 7.58984 105.208 7.58984C104.807 7.58984 104.463 7.68294 104.177 7.86914C103.89 8.04818 103.658 8.29525 103.479 8.61035C103.307 8.92546 103.178 9.29785 103.092 9.72754C103.013 10.1501 102.974 10.6084 102.974 11.1025ZM116.025 5.37695V17H112.921V5.37695H116.025ZM112.728 2.34766C112.728 1.89648 112.885 1.52409 113.2 1.23047C113.515 0.936849 113.938 0.790039 114.468 0.790039C114.991 0.790039 115.41 0.936849 115.725 1.23047C116.047 1.52409 116.208 1.89648 116.208 2.34766C116.208 2.79883 116.047 3.17122 115.725 3.46484C115.41 3.75846 114.991 3.90527 114.468 3.90527C113.938 3.90527 113.515 3.75846 113.2 3.46484C112.885 3.17122 112.728 2.79883 112.728 2.34766ZM118.088 11.3066V11.0811C118.088 10.2288 118.21 9.44466 118.453 8.72852C118.697 8.00521 119.051 7.37858 119.517 6.84863C119.982 6.31868 120.555 5.9069 121.235 5.61328C121.916 5.3125 122.696 5.16211 123.577 5.16211C124.458 5.16211 125.242 5.3125 125.93 5.61328C126.617 5.9069 127.194 6.31868 127.659 6.84863C128.132 7.37858 128.49 8.00521 128.733 8.72852C128.977 9.44466 129.099 10.2288 129.099 11.0811V11.3066C129.099 12.1517 128.977 12.9359 128.733 13.6592C128.49 14.3753 128.132 15.002 127.659 15.5391C127.194 16.069 126.621 16.4808 125.94 16.7744C125.26 17.068 124.479 17.2148 123.599 17.2148C122.718 17.2148 121.934 17.068 121.246 16.7744C120.566 16.4808 119.989 16.069 119.517 15.5391C119.051 15.002 118.697 14.3753 118.453 13.6592C118.21 12.9359 118.088 12.1517 118.088 11.3066ZM121.182 11.0811V11.3066C121.182 11.7936 121.225 12.2484 121.311 12.6709C121.396 13.0934 121.533 13.4658 121.719 13.7881C121.912 14.1032 122.163 14.3503 122.471 14.5293C122.779 14.7083 123.155 14.7979 123.599 14.7979C124.028 14.7979 124.397 14.7083 124.705 14.5293C125.013 14.3503 125.26 14.1032 125.446 13.7881C125.632 13.4658 125.769 13.0934 125.854 12.6709C125.948 12.2484 125.994 11.7936 125.994 11.3066V11.0811C125.994 10.6084 125.948 10.1644 125.854 9.74902C125.769 9.3265 125.629 8.9541 125.436 8.63184C125.249 8.30241 125.002 8.0446 124.694 7.8584C124.386 7.6722 124.014 7.5791 123.577 7.5791C123.14 7.5791 122.768 7.6722 122.46 7.8584C122.159 8.0446 121.912 8.30241 121.719 8.63184C121.533 8.9541 121.396 9.3265 121.311 9.74902C121.225 10.1644 121.182 10.6084 121.182 11.0811ZM137.284 13.7881C137.284 13.5661 137.22 13.3656 137.091 13.1865C136.962 13.0075 136.722 12.8428 136.371 12.6924C136.027 12.5348 135.53 12.3916 134.878 12.2627C134.291 12.1338 133.743 11.9727 133.234 11.7793C132.733 11.5788 132.296 11.3389 131.924 11.0596C131.559 10.7803 131.272 10.4508 131.064 10.0713C130.857 9.68457 130.753 9.24414 130.753 8.75C130.753 8.26302 130.857 7.80469 131.064 7.375C131.279 6.94531 131.584 6.56576 131.978 6.23633C132.379 5.89974 132.866 5.63835 133.438 5.45215C134.019 5.25879 134.67 5.16211 135.394 5.16211C136.403 5.16211 137.27 5.32324 137.993 5.64551C138.724 5.96777 139.282 6.41178 139.669 6.97754C140.063 7.53613 140.26 8.1735 140.26 8.88965H137.166C137.166 8.58887 137.102 8.32031 136.973 8.08398C136.851 7.84049 136.658 7.65072 136.393 7.51465C136.135 7.37142 135.798 7.2998 135.383 7.2998C135.039 7.2998 134.742 7.36068 134.491 7.48242C134.241 7.59701 134.047 7.75456 133.911 7.95508C133.782 8.14844 133.718 8.36328 133.718 8.59961C133.718 8.77865 133.754 8.93978 133.825 9.08301C133.904 9.21908 134.029 9.3444 134.201 9.45898C134.373 9.57357 134.595 9.68099 134.867 9.78125C135.146 9.87435 135.49 9.96029 135.898 10.0391C136.736 10.2109 137.485 10.4365 138.144 10.7158C138.802 10.988 139.325 11.3604 139.712 11.833C140.099 12.2985 140.292 12.9108 140.292 13.6699C140.292 14.1855 140.177 14.6582 139.948 15.0879C139.719 15.5176 139.39 15.8936 138.96 16.2158C138.53 16.5309 138.015 16.778 137.413 16.957C136.819 17.1289 136.149 17.2148 135.404 17.2148C134.323 17.2148 133.406 17.0215 132.654 16.6348C131.91 16.248 131.344 15.7575 130.957 15.1631C130.577 14.5615 130.388 13.9456 130.388 13.3154H133.32C133.335 13.738 133.442 14.0781 133.643 14.3359C133.85 14.5938 134.112 14.7799 134.427 14.8945C134.749 15.0091 135.096 15.0664 135.469 15.0664C135.87 15.0664 136.203 15.0127 136.468 14.9053C136.733 14.7907 136.933 14.6403 137.069 14.4541C137.213 14.2607 137.284 14.0387 137.284 13.7881Z" fill="url(#paint0_linear_129_382)"/>
<defs>
<linearGradient id="paint0_linear_129_382" x1="67.5" y1="17" x2="142" y2="17" gradientUnits="userSpaceOnUse">
<stop stop-color="#FC4A1A"/>
<stop offset="1" stop-color="#F7B733"/>
</linearGradient>
</defs>
</svg>
