<svg width="587" height="19" viewBox="0 0 587 19" fill="none" xmlns="http://www.w3.org/2000/svg">
<path d="M3.61914 0.245544V15.8862H0.396484V0.245544H3.61914ZM9.84961 6.92719V9.44086H2.73828V6.92719H9.84961ZM10.6016 0.245544V2.76996H2.73828V0.245544H10.6016ZM21.1074 0.245544H24.3193V10.5795C24.3193 11.7827 24.0615 12.796 23.5459 13.6196C23.0374 14.4431 22.332 15.0626 21.4297 15.478C20.5345 15.8933 19.5033 16.101 18.3359 16.101C17.1686 16.101 16.1302 15.8933 15.2207 15.478C14.3184 15.0626 13.6094 14.4431 13.0938 13.6196C12.5853 12.796 12.3311 11.7827 12.3311 10.5795V0.245544H15.5537V10.5795C15.5537 11.2814 15.6647 11.8543 15.8867 12.2983C16.1087 12.7423 16.4274 13.0681 16.8428 13.2758C17.2653 13.4835 17.763 13.5873 18.3359 13.5873C18.9232 13.5873 19.4209 13.4835 19.8291 13.2758C20.2445 13.0681 20.5596 12.7423 20.7744 12.2983C20.9964 11.8543 21.1074 11.2814 21.1074 10.5795V0.245544ZM37.0273 13.3725V15.8862H29.1533V13.3725H37.0273ZM30.1953 0.245544V15.8862H26.9727V0.245544H30.1953ZM48.9297 13.3725V15.8862H41.0557V13.3725H48.9297ZM42.0977 0.245544V15.8862H38.875V0.245544H42.0977ZM56.6855 7.95844V10.3862H50.6162V7.95844H56.6855ZM67.5996 11.7934C67.5996 11.5141 67.5566 11.2634 67.4707 11.0414C67.3919 10.8123 67.2415 10.6046 67.0195 10.4184C66.7975 10.225 66.486 10.0353 66.085 9.84906C65.6839 9.66286 65.1647 9.4695 64.5273 9.26898C63.8184 9.03982 63.1452 8.782 62.5078 8.49554C61.8776 8.20909 61.319 7.87608 60.832 7.49652C60.3522 7.1098 59.9727 6.66221 59.6934 6.15375C59.4212 5.64528 59.2852 5.05446 59.2852 4.38129C59.2852 3.72959 59.4284 3.13877 59.7148 2.60883C60.0013 2.07172 60.4023 1.61338 60.918 1.23383C61.4336 0.847107 62.0423 0.549906 62.7441 0.342224C63.4531 0.134542 64.2301 0.0307007 65.0752 0.0307007C66.2282 0.0307007 67.2344 0.238383 68.0938 0.653748C68.9531 1.06911 69.6191 1.63845 70.0918 2.36176C70.5716 3.08506 70.8115 3.91221 70.8115 4.8432H67.6104C67.6104 4.38487 67.5137 3.98383 67.3203 3.64008C67.1341 3.28916 66.8477 3.01345 66.4609 2.81293C66.0814 2.61241 65.6016 2.51215 65.0215 2.51215C64.4629 2.51215 63.9974 2.59808 63.625 2.76996C63.2526 2.93467 62.9733 3.16026 62.7871 3.44672C62.6009 3.72601 62.5078 4.04112 62.5078 4.39203C62.5078 4.657 62.5723 4.89691 62.7012 5.11176C62.8372 5.3266 63.0378 5.52712 63.3027 5.71332C63.5677 5.89952 63.8936 6.07497 64.2803 6.23969C64.667 6.4044 65.1146 6.56553 65.623 6.72308C66.4753 6.9809 67.2236 7.27094 67.8682 7.5932C68.5199 7.91547 69.0641 8.27712 69.501 8.67816C69.9378 9.0792 70.2673 9.53396 70.4893 10.0424C70.7113 10.5509 70.8223 11.1274 70.8223 11.7719C70.8223 12.4523 70.6898 13.061 70.4248 13.5981C70.1598 14.1352 69.7767 14.5899 69.2754 14.9623C68.7741 15.3347 68.1761 15.6176 67.4814 15.811C66.7868 16.0043 66.0098 16.101 65.1504 16.101C64.377 16.101 63.6143 16.0008 62.8623 15.8002C62.1104 15.5925 61.4264 15.281 60.8105 14.8657C60.2018 14.4503 59.7148 13.9203 59.3496 13.2758C58.9844 12.6313 58.8018 11.8686 58.8018 10.9877H62.0352C62.0352 11.4747 62.1104 11.8865 62.2607 12.2231C62.4111 12.5597 62.6224 12.8318 62.8945 13.0395C63.1738 13.2472 63.5033 13.3976 63.8828 13.4907C64.2695 13.5838 64.6921 13.6303 65.1504 13.6303C65.709 13.6303 66.1673 13.5515 66.5254 13.394C66.8906 13.2364 67.1592 13.018 67.3311 12.7387C67.5101 12.4594 67.5996 12.1443 67.5996 11.7934ZM80.0068 0.245544V15.8862H76.7949V0.245544H80.0068ZM84.8193 0.245544V2.76996H72.0576V0.245544H84.8193ZM91.8555 2.92035L87.6016 15.8862H84.1748L89.9863 0.245544H92.167L91.8555 2.92035ZM95.3896 15.8862L91.125 2.92035L90.7812 0.245544H92.9834L98.8271 15.8862H95.3896ZM95.1963 10.0639V12.5883H86.9355V10.0639H95.1963ZM109.15 10.6977H112.362C112.298 11.7504 112.008 12.685 111.492 13.5014C110.984 14.3178 110.271 14.9552 109.354 15.4135C108.445 15.8718 107.349 16.101 106.067 16.101C105.065 16.101 104.166 15.9291 103.371 15.5854C102.576 15.2345 101.896 14.7332 101.33 14.0815C100.771 13.4298 100.345 12.642 100.052 11.7182C99.7581 10.7944 99.6113 9.75954 99.6113 8.61371V7.52875C99.6113 6.38291 99.7617 5.34808 100.062 4.42426C100.37 3.49327 100.807 2.70192 101.373 2.05023C101.946 1.39854 102.63 0.897237 103.425 0.546326C104.22 0.195414 105.108 0.0199585 106.089 0.0199585C107.392 0.0199585 108.492 0.256287 109.387 0.728943C110.289 1.2016 110.987 1.85329 111.481 2.68402C111.983 3.51475 112.284 4.46006 112.384 5.51996H109.161C109.125 4.88975 109 4.35622 108.785 3.91937C108.57 3.47536 108.244 3.14235 107.808 2.92035C107.378 2.69118 106.805 2.5766 106.089 2.5766C105.552 2.5766 105.083 2.67686 104.682 2.87738C104.281 3.0779 103.944 3.38226 103.672 3.79047C103.4 4.19867 103.196 4.71429 103.06 5.33734C102.931 5.95323 102.866 6.67653 102.866 7.50726V8.61371C102.866 9.42295 102.927 10.1355 103.049 10.7514C103.171 11.3601 103.357 11.8758 103.607 12.2983C103.865 12.7136 104.195 13.0287 104.596 13.2436C105.004 13.4513 105.494 13.5551 106.067 13.5551C106.741 13.5551 107.296 13.4477 107.732 13.2328C108.169 13.018 108.502 12.6993 108.731 12.2768C108.968 11.8543 109.107 11.3279 109.15 10.6977ZM117.701 0.245544V15.8862H114.479V0.245544H117.701ZM127.068 0.245544L120.87 7.96918L117.293 11.8149L116.713 8.7641L119.13 5.45551L123.115 0.245544H127.068ZM123.405 15.8862L118.797 8.65668L121.182 6.65863L127.219 15.8862H123.405ZM138.745 15.8862H135.34L135.361 13.3725H138.745C139.59 13.3725 140.303 13.1827 140.883 12.8032C141.463 12.4164 141.9 11.8543 142.193 11.1166C142.494 10.379 142.645 9.48741 142.645 8.44183V7.67914C142.645 6.87705 142.559 6.17165 142.387 5.56293C142.222 4.9542 141.975 4.44216 141.646 4.02679C141.316 3.61143 140.911 3.29991 140.432 3.09222C139.952 2.87738 139.4 2.76996 138.777 2.76996H135.275V0.245544H138.777C139.823 0.245544 140.779 0.424581 141.646 0.782654C142.519 1.13357 143.275 1.63845 143.912 2.2973C144.549 2.95616 145.04 3.74392 145.384 4.66058C145.735 5.57009 145.91 6.58344 145.91 7.70062V8.44183C145.91 9.55186 145.735 10.5652 145.384 11.4819C145.04 12.3985 144.549 13.1863 143.912 13.8452C143.282 14.4968 142.526 15.0017 141.646 15.3598C140.772 15.7107 139.805 15.8862 138.745 15.8862ZM137.166 0.245544V15.8862H133.943V0.245544H137.166ZM158.747 13.3725V15.8862H150.422V13.3725H158.747ZM151.475 0.245544V15.8862H148.252V0.245544H151.475ZM157.662 6.61566V9.06488H150.422V6.61566H157.662ZM158.736 0.245544V2.76996H150.422V0.245544H158.736ZM166.267 12.6205L169.951 0.245544H173.539L168.093 15.8862H165.729L166.267 12.6205ZM162.872 0.245544L166.546 12.6205L167.104 15.8862H164.72L159.306 0.245544H162.872ZM185.495 13.3725V15.8862H177.17V13.3725H185.495ZM178.223 0.245544V15.8862H175V0.245544H178.223ZM184.41 6.61566V9.06488H177.17V6.61566H184.41ZM185.484 0.245544V2.76996H177.17V0.245544H185.484ZM197.43 13.3725V15.8862H189.556V13.3725H197.43ZM190.598 0.245544V15.8862H187.375V0.245544H190.598ZM211.416 7.70062V8.44183C211.416 9.63064 211.255 10.6977 210.933 11.643C210.61 12.5883 210.156 13.394 209.568 14.06C208.981 14.7189 208.279 15.2237 207.463 15.5746C206.654 15.9256 205.755 16.101 204.767 16.101C203.785 16.101 202.887 15.9256 202.07 15.5746C201.261 15.2237 200.559 14.7189 199.965 14.06C199.37 13.394 198.909 12.5883 198.579 11.643C198.257 10.6977 198.096 9.63064 198.096 8.44183V7.70062C198.096 6.50466 198.257 5.4376 198.579 4.49945C198.901 3.55414 199.356 2.74847 199.943 2.08246C200.538 1.41644 201.24 0.907979 202.049 0.557068C202.865 0.206156 203.764 0.0307007 204.745 0.0307007C205.733 0.0307007 206.632 0.206156 207.441 0.557068C208.258 0.907979 208.96 1.41644 209.547 2.08246C210.141 2.74847 210.6 3.55414 210.922 4.49945C211.251 5.4376 211.416 6.50466 211.416 7.70062ZM208.161 8.44183V7.67914C208.161 6.84841 208.086 6.11794 207.936 5.48773C207.785 4.85752 207.563 4.32758 207.27 3.89789C206.976 3.4682 206.618 3.14594 206.195 2.93109C205.773 2.70909 205.289 2.59808 204.745 2.59808C204.201 2.59808 203.717 2.70909 203.295 2.93109C202.88 3.14594 202.525 3.4682 202.231 3.89789C201.945 4.32758 201.727 4.85752 201.576 5.48773C201.426 6.11794 201.351 6.84841 201.351 7.67914V8.44183C201.351 9.2654 201.426 9.99587 201.576 10.6332C201.727 11.2634 201.949 11.797 202.242 12.2338C202.536 12.6635 202.894 12.9894 203.316 13.2114C203.739 13.4334 204.222 13.5444 204.767 13.5444C205.311 13.5444 205.794 13.4334 206.217 13.2114C206.639 12.9894 206.994 12.6635 207.28 12.2338C207.567 11.797 207.785 11.2634 207.936 10.6332C208.086 9.99587 208.161 9.2654 208.161 8.44183ZM219.827 10.311H215.842V7.7973H219.827C220.443 7.7973 220.944 7.69704 221.331 7.49652C221.718 7.28884 222.001 7.00238 222.18 6.63715C222.359 6.27191 222.448 5.86013 222.448 5.40179C222.448 4.9363 222.359 4.50303 222.18 4.10199C222.001 3.70095 221.718 3.37868 221.331 3.13519C220.944 2.8917 220.443 2.76996 219.827 2.76996H216.959V15.8862H213.736V0.245544H219.827C221.052 0.245544 222.101 0.46755 222.975 0.91156C223.855 1.34841 224.529 1.95355 224.994 2.72699C225.46 3.50043 225.692 4.38487 225.692 5.38031C225.692 6.39008 225.46 7.26377 224.994 8.0014C224.529 8.73903 223.855 9.30837 222.975 9.70941C222.101 10.1105 221.052 10.311 219.827 10.311ZM238.411 13.3725V15.8862H230.086V13.3725H238.411ZM231.139 0.245544V15.8862H227.916V0.245544H231.139ZM237.326 6.61566V9.06488H230.086V6.61566H237.326ZM238.4 0.245544V2.76996H230.086V0.245544H238.4ZM240.291 0.245544H246.124C247.32 0.245544 248.348 0.424581 249.207 0.782654C250.074 1.14073 250.74 1.67067 251.205 2.3725C251.671 3.07432 251.903 3.93728 251.903 4.96136C251.903 5.79926 251.76 6.51898 251.474 7.12054C251.194 7.71495 250.797 8.21267 250.281 8.61371C249.773 9.00759 249.175 9.32269 248.487 9.55902L247.467 10.0961H242.396L242.375 7.58246H246.146C246.711 7.58246 247.18 7.4822 247.553 7.28168C247.925 7.08116 248.204 6.80186 248.391 6.44379C248.584 6.08571 248.681 5.67035 248.681 5.19769C248.681 4.69639 248.588 4.26312 248.401 3.89789C248.215 3.53265 247.932 3.25336 247.553 3.06C247.173 2.86664 246.697 2.76996 246.124 2.76996H243.514V15.8862H240.291V0.245544ZM249.035 15.8862L245.469 8.91449L248.874 8.89301L252.483 15.7358V15.8862H249.035ZM262.184 0.245544V18.7866H260.336V0.245544H262.184ZM279.521 0.245544H282.733V10.5795C282.733 11.7827 282.476 12.796 281.96 13.6196C281.451 14.4431 280.746 15.0626 279.844 15.478C278.949 15.8933 277.917 16.101 276.75 16.101C275.583 16.101 274.544 15.8933 273.635 15.478C272.732 15.0626 272.023 14.4431 271.508 13.6196C270.999 12.796 270.745 11.7827 270.745 10.5795V0.245544H273.968V10.5795C273.968 11.2814 274.079 11.8543 274.301 12.2983C274.523 12.7423 274.841 13.0681 275.257 13.2758C275.679 13.4835 276.177 13.5873 276.75 13.5873C277.337 13.5873 277.835 13.4835 278.243 13.2758C278.659 13.0681 278.974 12.7423 279.188 12.2983C279.41 11.8543 279.521 11.2814 279.521 10.5795V0.245544ZM288.04 0.245544L290.983 5.70258L293.927 0.245544H297.611L293.067 8.0014L297.729 15.8862H294.013L290.983 10.3217L287.954 15.8862H284.216L288.889 8.0014L284.334 0.245544H288.04ZM305.84 0.245544L300.104 17.2289H297.805L303.541 0.245544H305.84ZM316.152 0.245544H319.364V10.5795C319.364 11.7827 319.106 12.796 318.591 13.6196C318.082 14.4431 317.377 15.0626 316.475 15.478C315.579 15.8933 314.548 16.101 313.381 16.101C312.214 16.101 311.175 15.8933 310.266 15.478C309.363 15.0626 308.654 14.4431 308.139 13.6196C307.63 12.796 307.376 11.7827 307.376 10.5795V0.245544H310.599V10.5795C310.599 11.2814 310.71 11.8543 310.932 12.2983C311.154 12.7423 311.472 13.0681 311.888 13.2758C312.31 13.4835 312.808 13.5873 313.381 13.5873C313.968 13.5873 314.466 13.4835 314.874 13.2758C315.289 13.0681 315.604 12.7423 315.819 12.2983C316.041 11.8543 316.152 11.2814 316.152 10.5795V0.245544ZM325.444 0.245544V15.8862H322.232V0.245544H325.444ZM338.743 15.8862H335.338L335.359 13.3725H338.743C339.588 13.3725 340.301 13.1827 340.881 12.8032C341.461 12.4164 341.898 11.8543 342.191 11.1166C342.492 10.379 342.643 9.48741 342.643 8.44183V7.67914C342.643 6.87705 342.557 6.17165 342.385 5.56293C342.22 4.9542 341.973 4.44216 341.644 4.02679C341.314 3.61143 340.91 3.29991 340.43 3.09222C339.95 2.87738 339.398 2.76996 338.775 2.76996H335.273V0.245544H338.775C339.821 0.245544 340.777 0.424581 341.644 0.782654C342.517 1.13357 343.273 1.63845 343.91 2.2973C344.548 2.95616 345.038 3.74392 345.382 4.66058C345.733 5.57009 345.908 6.58344 345.908 7.70062V8.44183C345.908 9.55186 345.733 10.5652 345.382 11.4819C345.038 12.3985 344.548 13.1863 343.91 13.8452C343.28 14.4968 342.524 15.0017 341.644 15.3598C340.77 15.7107 339.803 15.8862 338.743 15.8862ZM337.164 0.245544V15.8862H333.941V0.245544H337.164ZM358.745 13.3725V15.8862H350.42V13.3725H358.745ZM351.473 0.245544V15.8862H348.25V0.245544H351.473ZM357.66 6.61566V9.06488H350.42V6.61566H357.66ZM358.734 0.245544V2.76996H350.42V0.245544H358.734ZM368.768 11.7934C368.768 11.5141 368.725 11.2634 368.639 11.0414C368.56 10.8123 368.41 10.6046 368.188 10.4184C367.965 10.225 367.654 10.0353 367.253 9.84906C366.852 9.66286 366.333 9.4695 365.695 9.26898C364.986 9.03982 364.313 8.782 363.676 8.49554C363.046 8.20909 362.487 7.87608 362 7.49652C361.52 7.1098 361.141 6.66221 360.861 6.15375C360.589 5.64528 360.453 5.05446 360.453 4.38129C360.453 3.72959 360.596 3.13877 360.883 2.60883C361.169 2.07172 361.57 1.61338 362.086 1.23383C362.602 0.847107 363.21 0.549906 363.912 0.342224C364.621 0.134542 365.398 0.0307007 366.243 0.0307007C367.396 0.0307007 368.402 0.238383 369.262 0.653748C370.121 1.06911 370.787 1.63845 371.26 2.36176C371.74 3.08506 371.979 3.91221 371.979 4.8432H368.778C368.778 4.38487 368.682 3.98383 368.488 3.64008C368.302 3.28916 368.016 3.01345 367.629 2.81293C367.249 2.61241 366.77 2.51215 366.189 2.51215C365.631 2.51215 365.165 2.59808 364.793 2.76996C364.421 2.93467 364.141 3.16026 363.955 3.44672C363.769 3.72601 363.676 4.04112 363.676 4.39203C363.676 4.657 363.74 4.89691 363.869 5.11176C364.005 5.3266 364.206 5.52712 364.471 5.71332C364.736 5.89952 365.062 6.07497 365.448 6.23969C365.835 6.4044 366.283 6.56553 366.791 6.72308C367.643 6.9809 368.392 7.27094 369.036 7.5932C369.688 7.91547 370.232 8.27712 370.669 8.67816C371.106 9.0792 371.435 9.53396 371.657 10.0424C371.879 10.5509 371.99 11.1274 371.99 11.7719C371.99 12.4523 371.858 13.061 371.593 13.5981C371.328 14.1352 370.945 14.5899 370.443 14.9623C369.942 15.3347 369.344 15.6176 368.649 15.811C367.955 16.0043 367.178 16.101 366.318 16.101C365.545 16.101 364.782 16.0008 364.03 15.8002C363.278 15.5925 362.594 15.281 361.979 14.8657C361.37 14.4503 360.883 13.9203 360.518 13.2758C360.152 12.6313 359.97 11.8686 359.97 10.9877H363.203C363.203 11.4747 363.278 11.8865 363.429 12.2231C363.579 12.5597 363.79 12.8318 364.062 13.0395C364.342 13.2472 364.671 13.3976 365.051 13.4907C365.438 13.5838 365.86 13.6303 366.318 13.6303C366.877 13.6303 367.335 13.5515 367.693 13.394C368.059 13.2364 368.327 13.018 368.499 12.7387C368.678 12.4594 368.768 12.1443 368.768 11.7934ZM377.608 0.245544V15.8862H374.396V0.245544H377.608ZM393.023 7.71136V13.9096C392.78 14.2032 392.404 14.5219 391.896 14.8657C391.387 15.2023 390.732 15.4923 389.93 15.7358C389.128 15.9793 388.157 16.101 387.019 16.101C386.009 16.101 385.089 15.9363 384.258 15.6069C383.427 15.2703 382.711 14.7797 382.109 14.1352C381.515 13.4907 381.057 12.7029 380.734 11.7719C380.412 10.8338 380.251 9.76312 380.251 8.56V7.58246C380.251 6.37933 380.405 5.3087 380.713 4.37054C381.028 3.43239 381.476 2.64105 382.056 1.99652C382.636 1.35199 383.327 0.86143 384.129 0.524841C384.931 0.188253 385.823 0.0199585 386.804 0.0199585C388.164 0.0199585 389.282 0.241964 390.155 0.685974C391.029 1.12282 391.695 1.73155 392.153 2.51215C392.619 3.28558 392.905 4.1736 393.013 5.17621H389.887C389.808 4.64626 389.658 4.18435 389.436 3.79047C389.214 3.39659 388.895 3.08864 388.479 2.86664C388.071 2.64463 387.541 2.53363 386.89 2.53363C386.353 2.53363 385.873 2.64463 385.45 2.86664C385.035 3.08148 384.684 3.40017 384.397 3.82269C384.111 4.24522 383.893 4.76801 383.742 5.39105C383.592 6.0141 383.517 6.73741 383.517 7.56097V8.56C383.517 9.3764 383.595 10.0997 383.753 10.7299C383.91 11.353 384.143 11.8793 384.451 12.309C384.766 12.7315 385.153 13.0502 385.611 13.2651C386.07 13.4799 386.603 13.5873 387.212 13.5873C387.72 13.5873 388.143 13.5444 388.479 13.4584C388.823 13.3725 389.099 13.2687 389.307 13.1469C389.521 13.018 389.686 12.8963 389.801 12.7817V10.0102H386.857V7.71136H393.023ZM408.353 0.245544V15.8862H405.13L398.846 5.40179V15.8862H395.623V0.245544H398.846L405.141 10.7407V0.245544H408.353ZM421.651 13.3725V15.8862H413.326V13.3725H421.651ZM414.379 0.245544V15.8862H411.156V0.245544H414.379ZM420.566 6.61566V9.06488H413.326V6.61566H420.566ZM421.641 0.245544V2.76996H413.326V0.245544H421.641ZM423.531 0.245544H429.364C430.56 0.245544 431.588 0.424581 432.447 0.782654C433.314 1.14073 433.98 1.67067 434.445 2.3725C434.911 3.07432 435.144 3.93728 435.144 4.96136C435.144 5.79926 435 6.51898 434.714 7.12054C434.435 7.71495 434.037 8.21267 433.521 8.61371C433.013 9.00759 432.415 9.32269 431.728 9.55902L430.707 10.0961H425.637L425.615 7.58246H429.386C429.951 7.58246 430.421 7.4822 430.793 7.28168C431.165 7.08116 431.445 6.80186 431.631 6.44379C431.824 6.08571 431.921 5.67035 431.921 5.19769C431.921 4.69639 431.828 4.26312 431.642 3.89789C431.455 3.53265 431.173 3.25336 430.793 3.06C430.413 2.86664 429.937 2.76996 429.364 2.76996H426.754V15.8862H423.531V0.245544ZM432.275 15.8862L428.709 8.91449L432.114 8.89301L435.724 15.7358V15.8862H432.275ZM445.424 0.245544V18.7866H443.576V0.245544H445.424ZM457.348 0.245544V15.8862H454.125V0.245544H457.348ZM463.578 6.92719V9.44086H456.467V6.92719H463.578ZM464.33 0.245544V2.76996H456.467V0.245544H464.33ZM466.199 0.245544H472.032C473.228 0.245544 474.256 0.424581 475.115 0.782654C475.982 1.14073 476.648 1.67067 477.113 2.3725C477.579 3.07432 477.812 3.93728 477.812 4.96136C477.812 5.79926 477.668 6.51898 477.382 7.12054C477.103 7.71495 476.705 8.21267 476.189 8.61371C475.681 9.00759 475.083 9.32269 474.396 9.55902L473.375 10.0961H468.305L468.283 7.58246H472.054C472.619 7.58246 473.089 7.4822 473.461 7.28168C473.833 7.08116 474.113 6.80186 474.299 6.44379C474.492 6.08571 474.589 5.67035 474.589 5.19769C474.589 4.69639 474.496 4.26312 474.31 3.89789C474.123 3.53265 473.84 3.25336 473.461 3.06C473.081 2.86664 472.605 2.76996 472.032 2.76996H469.422V15.8862H466.199V0.245544ZM474.943 15.8862L471.377 8.91449L474.782 8.89301L478.392 15.7358V15.8862H474.943ZM490.788 13.3725V15.8862H482.463V13.3725H490.788ZM483.516 0.245544V15.8862H480.293V0.245544H483.516ZM489.703 6.61566V9.06488H482.463V6.61566H489.703ZM490.777 0.245544V2.76996H482.463V0.245544H490.777ZM503.163 13.3725V15.8862H494.838V13.3725H503.163ZM495.891 0.245544V15.8862H492.668V0.245544H495.891ZM502.078 6.61566V9.06488H494.838V6.61566H502.078ZM503.152 0.245544V2.76996H494.838V0.245544H503.152ZM515.098 13.3725V15.8862H507.224V13.3725H515.098ZM508.266 0.245544V15.8862H505.043V0.245544H508.266ZM523.52 2.92035L519.266 15.8862H515.839L521.65 0.245544H523.831L523.52 2.92035ZM527.054 15.8862L522.789 2.92035L522.445 0.245544H524.647L530.491 15.8862H527.054ZM526.86 10.0639V12.5883H518.6V10.0639H526.86ZM544.671 0.245544V15.8862H541.448L535.164 5.40179V15.8862H531.941V0.245544H535.164L541.459 10.7407V0.245544H544.671ZM556.541 10.6977H559.753C559.688 11.7504 559.398 12.685 558.883 13.5014C558.374 14.3178 557.662 14.9552 556.745 15.4135C555.836 15.8718 554.74 16.101 553.458 16.101C552.455 16.101 551.557 15.9291 550.762 15.5854C549.967 15.2345 549.286 14.7332 548.721 14.0815C548.162 13.4298 547.736 12.642 547.442 11.7182C547.149 10.7944 547.002 9.75954 547.002 8.61371V7.52875C547.002 6.38291 547.152 5.34808 547.453 4.42426C547.761 3.49327 548.198 2.70192 548.764 2.05023C549.337 1.39854 550.021 0.897237 550.815 0.546326C551.61 0.195414 552.498 0.0199585 553.479 0.0199585C554.783 0.0199585 555.882 0.256287 556.777 0.728943C557.68 1.2016 558.378 1.85329 558.872 2.68402C559.373 3.51475 559.674 4.46006 559.774 5.51996H556.552C556.516 4.88975 556.391 4.35622 556.176 3.91937C555.961 3.47536 555.635 3.14235 555.198 2.92035C554.769 2.69118 554.196 2.5766 553.479 2.5766C552.942 2.5766 552.473 2.67686 552.072 2.87738C551.671 3.0779 551.335 3.38226 551.062 3.79047C550.79 4.19867 550.586 4.71429 550.45 5.33734C550.321 5.95323 550.257 6.67653 550.257 7.50726V8.61371C550.257 9.42295 550.318 10.1355 550.439 10.7514C550.561 11.3601 550.747 11.8758 550.998 12.2983C551.256 12.7136 551.585 13.0287 551.986 13.2436C552.395 13.4513 552.885 13.5551 553.458 13.5551C554.131 13.5551 554.686 13.4477 555.123 13.2328C555.56 13.018 555.893 12.6993 556.122 12.2768C556.358 11.8543 556.498 11.3279 556.541 10.6977ZM572.364 13.3725V15.8862H564.039V13.3725H572.364ZM565.092 0.245544V15.8862H561.869V0.245544H565.092ZM571.279 6.61566V9.06488H564.039V6.61566H571.279ZM572.354 0.245544V2.76996H564.039V0.245544H572.354ZM574.244 0.245544H580.077C581.273 0.245544 582.301 0.424581 583.16 0.782654C584.027 1.14073 584.693 1.67067 585.158 2.3725C585.624 3.07432 585.856 3.93728 585.856 4.96136C585.856 5.79926 585.713 6.51898 585.427 7.12054C585.147 7.71495 584.75 8.21267 584.234 8.61371C583.726 9.00759 583.128 9.32269 582.44 9.55902L581.42 10.0961H576.35L576.328 7.58246H580.099C580.664 7.58246 581.133 7.4822 581.506 7.28168C581.878 7.08116 582.158 6.80186 582.344 6.44379C582.537 6.08571 582.634 5.67035 582.634 5.19769C582.634 4.69639 582.541 4.26312 582.354 3.89789C582.168 3.53265 581.885 3.25336 581.506 3.06C581.126 2.86664 580.65 2.76996 580.077 2.76996H577.467V15.8862H574.244V0.245544ZM582.988 15.8862L579.422 8.91449L582.827 8.89301L586.437 15.7358V15.8862H582.988Z" fill="white"/>
</svg>
