<svg width="26" height="22" viewBox="0 0 26 22" fill="none" xmlns="http://www.w3.org/2000/svg">
<g clip-path="url(#clip0_128_249)">
<path d="M25.7413 3.21365C24.7886 3.63572 23.778 3.91277 22.7432 4.03558C23.8211 3.38956 24.6487 2.36657 25.0384 1.14768C24.0138 1.75572 22.8927 2.18412 21.7237 2.41437C20.7715 1.39993 19.415 0.765938 17.9135 0.765938C15.0307 0.765938 12.6934 3.10313 12.6934 5.98575C12.6934 6.39493 12.7396 6.79328 12.8286 7.17542C8.49031 6.95766 4.64402 4.87957 2.0694 1.72145C1.62017 2.49239 1.36275 3.38916 1.36275 4.34567C1.36275 6.1567 2.28437 7.75435 3.68494 8.69048C2.856 8.66452 2.0453 8.44063 1.32051 8.0375C1.32022 8.05937 1.32022 8.08124 1.32022 8.1032C1.32022 10.6323 3.11952 12.7421 5.5074 13.2216C4.73873 13.4307 3.93244 13.4613 3.15013 13.3111C3.81434 15.3849 5.74215 16.894 8.02627 16.9362C6.23979 18.3362 3.98896 19.1708 1.54344 19.1708C1.12204 19.1708 0.7066 19.146 0.298218 19.0978C2.60828 20.5789 5.35206 21.4431 8.29988 21.4431C17.9014 21.4431 23.1517 13.489 23.1517 6.59112C23.1517 6.36472 23.1467 6.13961 23.1366 5.91579C24.1585 5.17703 25.0406 4.262 25.7413 3.21365Z" fill="#1299FF"/>
</g>
<defs>
<clipPath id="clip0_128_249">
<rect width="25.4431" height="20.7719" fill="white" transform="translate(0.298218 0.684242)"/>
</clipPath>
</defs>
</svg>
