<svg width="22" height="22" viewBox="0 0 22 22" fill="none" xmlns="http://www.w3.org/2000/svg">
<g clip-path="url(#clip0_128_266)">
<path d="M0.714233 10.9143C0.714233 15.2688 3.44358 18.9867 7.28473 20.4496C7.19123 19.6531 7.09178 18.3399 7.30598 17.4185C7.49043 16.6263 8.49683 12.3712 8.49683 12.3712C8.49683 12.3712 8.19338 11.7634 8.19338 10.8633C8.19338 9.45229 9.01108 8.39829 10.0302 8.39829C10.8972 8.39829 11.3154 9.04854 11.3154 9.82799C11.3154 10.6992 10.7604 12.0014 10.4739 13.2093C10.2351 14.2199 10.9814 15.0444 11.9776 15.0444C13.7821 15.0444 15.1702 13.1413 15.1702 10.3941C15.1702 7.96224 13.4226 6.26309 10.9278 6.26309C8.03953 6.26309 6.34378 8.42974 6.34378 10.6695C6.34378 11.5424 6.67953 12.4774 7.09943 12.9866C7.13523 13.025 7.16053 13.0721 7.17288 13.1231C7.18524 13.1742 7.18424 13.2276 7.16998 13.2781C7.09263 13.5994 6.92093 14.2888 6.88778 14.4299C6.84273 14.6152 6.74073 14.6551 6.54778 14.565C5.27958 13.9751 4.48738 12.1213 4.48738 10.6321C4.48738 7.42844 6.81383 4.48744 11.1956 4.48744C14.718 4.48744 17.4558 6.99749 17.4558 10.3516C17.4558 13.851 15.2501 16.6679 12.1867 16.6679C11.1573 16.6679 10.1909 16.1324 9.85938 15.5009C9.85938 15.5009 9.35023 17.4406 9.22698 17.9149C8.98728 18.8363 8.32258 20.0025 7.91033 20.6646C8.86063 20.957 9.86873 21.1143 10.9142 21.1143C16.5472 21.1143 21.1142 16.5472 21.1142 10.9143C21.1142 5.28134 16.5472 0.714287 10.9142 0.714287C5.28128 0.714287 0.714233 5.28134 0.714233 10.9143Z" fill="#DF0022"/>
</g>
<defs>
<clipPath id="clip0_128_266">
<rect width="20.4" height="20.4" fill="white" transform="translate(0.714233 0.714287)"/>
</clipPath>
</defs>
</svg>
